<svg width="6" height="2" viewBox="0 0 6 2" fill="none" xmlns="http://www.w3.org/2000/svg">
<path fill-rule="evenodd" clip-rule="evenodd" d="M1.06401 0.252983L1.92355 0.744983L3.08586 0.00533295L3.08281 0.222165L2.09221 0.841841L2.14199 0.870459L2.92838 0.372956L2.96394 0.350943L3.08281 0.26289L3.10923 1.55287H2.96597L2.93955 0.594191L2.13996 1.06748L2.13793 1.06418L2.13691 1.06528L1.06198 0.425789L1.06401 0.252983Z" fill="#FF6600"/>
<path fill-rule="evenodd" clip-rule="evenodd" d="M1.21438 0.558971L2.12777 1.11151L2.05766 1.24909L1.21337 0.752689L1.22149 1.51986L1.06808 1.51545L1.06198 0.478622L1.18695 0.542461L1.21438 0.558971Z" fill="#FF6600"/>
<path d="M0.937012 0.92329V1.51985H1.00712V0.92329H0.937012Z" fill="white"/>
<path d="M0.966475 0.878162C0.992286 0.878162 1.01321 0.855494 1.01321 0.827532C1.01321 0.799569 0.992286 0.776901 0.966475 0.776901C0.940663 0.776901 0.919739 0.799569 0.919739 0.827532C0.919739 0.855494 0.940663 0.878162 0.966475 0.878162Z" fill="white"/>
<path d="M3.16714 0.671238V1.03336C3.16714 1.0994 3.18238 1.15994 3.21185 1.21497C3.24233 1.27 3.28297 1.31403 3.33377 1.34705C3.38457 1.38007 3.44045 1.39548 3.50243 1.39548C3.54408 1.39548 3.58371 1.38777 3.62028 1.37236C3.65889 1.35695 3.6914 1.33494 3.72188 1.30632C3.7168 1.34705 3.70461 1.38337 3.68429 1.41529C3.66397 1.44721 3.63857 1.47253 3.60606 1.49124C3.57456 1.50995 3.54002 1.51985 3.50243 1.51985V1.64313C3.56339 1.64313 3.61927 1.62662 3.67007 1.5936C3.72087 1.56168 3.76049 1.51765 3.79097 1.46262C3.82043 1.40869 3.83567 1.34815 3.83669 1.28101V0.671238H3.7229V1.03446C3.72188 1.07959 3.71172 1.11921 3.69242 1.15553C3.67311 1.19075 3.6467 1.21937 3.61317 1.24028C3.57964 1.2623 3.54307 1.2733 3.50243 1.2733C3.46077 1.2733 3.42419 1.2623 3.39067 1.24028C3.35714 1.21937 3.33072 1.19075 3.31142 1.15553C3.2911 1.11921 3.28195 1.07849 3.28094 1.03446V0.671238H3.16714Z" fill="white"/>
<path d="M3.86716 0.425789V1.39218H3.97993V1.17865L4.05207 1.106L4.33858 1.39218H4.50419L4.13538 1.02235L4.4859 0.671238H4.31928L3.97993 1.01134V0.425789H3.86716Z" fill="white"/>
<path d="M4.71246 0.671238C4.6576 0.671238 4.6068 0.684446 4.56108 0.710862C4.51434 0.737278 4.47472 0.772499 4.44424 0.817627C4.41376 0.861654 4.39344 0.913385 4.38328 0.97062C4.38124 0.992633 4.37921 1.01245 4.37921 1.03116C4.37921 1.05427 4.38124 1.07408 4.38328 1.09279C4.39344 1.15113 4.41376 1.20176 4.44424 1.24689C4.47573 1.29091 4.51434 1.32614 4.56108 1.35365C4.6068 1.38007 4.6576 1.39218 4.71246 1.39218C4.75615 1.39218 4.79679 1.38447 4.8354 1.36686C4.874 1.35035 4.90855 1.32614 4.93903 1.29642L4.86892 1.19956C4.8486 1.22157 4.82524 1.23808 4.79882 1.25129C4.77139 1.2634 4.74294 1.27 4.71246 1.27C4.66064 1.27 4.61594 1.25349 4.57733 1.22047C4.53872 1.18745 4.51332 1.14563 4.50012 1.09279H5.04063C5.04368 1.07298 5.04571 1.05317 5.04571 1.03116C5.04469 1.00914 5.04266 0.989331 5.04063 0.97062C5.03148 0.913385 5.01116 0.861654 4.97967 0.817627C4.94919 0.772499 4.91058 0.737278 4.86384 0.710862C4.81711 0.684446 4.76631 0.671238 4.71246 0.671238ZM4.71246 0.793412C4.76326 0.793412 4.80796 0.809922 4.84759 0.842942C4.88518 0.875962 4.9116 0.918888 4.9248 0.97062H4.50012C4.51332 0.918888 4.53872 0.875962 4.57733 0.842942C4.61594 0.809922 4.66064 0.793412 4.71246 0.793412Z" fill="white"/>
</svg>
